<svg width="22" height="22" viewBox="0 0 22 22" fill="none" xmlns="http://www.w3.org/2000/svg">
<mask id="mask0_150_12181" style="mask-type:alpha" maskUnits="userSpaceOnUse" x="0" y="0" width="22" height="22">
<rect x="0.129395" y="0.773438" width="21.2266" height="21.2266" fill="#D9D9D9"/>
</mask>
<g mask="url(#mask0_150_12181)">
<path d="M10.7427 21.1152V19.3464H16.9338V18.4619H13.396V11.3864H16.9338V10.502C16.9338 8.79204 16.3294 7.33271 15.1207 6.12397C13.9119 4.91524 12.4526 4.31087 10.7427 4.31087C9.03276 4.31087 7.57343 4.91524 6.3647 6.12397C5.15596 7.33271 4.5516 8.79204 4.5516 10.502V11.3864H8.08936V18.4619H4.5516C4.06515 18.4619 3.64873 18.2887 3.30232 17.9423C2.95592 17.5959 2.78271 17.1795 2.78271 16.693V10.502C2.78271 9.41114 2.99277 8.38298 3.41288 7.41747C3.83299 6.45195 4.40419 5.60805 5.12648 4.88576C5.84877 4.16347 6.69268 3.59226 7.65819 3.17216C8.6237 2.75205 9.65187 2.54199 10.7427 2.54199C11.8335 2.54199 12.8616 2.75205 13.8272 3.17216C14.7927 3.59226 15.6366 4.16347 16.3589 4.88576C17.0812 5.60805 17.6524 6.45195 18.0725 7.41747C18.4926 8.38298 18.7026 9.41114 18.7026 10.502V19.3464C18.7026 19.8328 18.5294 20.2492 18.183 20.5956C17.8366 20.942 17.4202 21.1152 16.9338 21.1152H10.7427Z" fill="#003C72"/>
</g>
</svg>
