<svg width="22" height="22" viewBox="0 0 22 22" fill="none" xmlns="http://www.w3.org/2000/svg">
<mask id="mask0_150_12176" style="mask-type:alpha" maskUnits="userSpaceOnUse" x="0" y="0" width="22" height="22">
<rect x="0.129395" y="0.773438" width="21.2266" height="21.2266" fill="#D9D9D9"/>
</mask>
<g mask="url(#mask0_150_12176)">
<path d="M14.2804 19.347L14.0151 18.0203C13.8382 17.9466 13.6724 17.8693 13.5176 17.7882C13.3628 17.7071 13.2044 17.6076 13.0422 17.4897L11.7598 17.8877L10.8754 16.3841L11.8925 15.4997C11.863 15.2933 11.8482 15.1017 11.8482 14.9248C11.8482 14.7479 11.863 14.5563 11.8925 14.3499L10.8754 13.4655L11.7598 11.9619L13.0422 12.3599C13.2044 12.242 13.3628 12.1425 13.5176 12.0614C13.6724 11.9804 13.8382 11.903 14.0151 11.8293L14.2804 10.5026H16.0493L16.3147 11.8293C16.4915 11.903 16.6574 11.984 16.8122 12.0725C16.9669 12.1609 17.1254 12.2715 17.2875 12.4042L18.57 11.9619L19.4544 13.5097L18.4373 14.3941C18.4668 14.571 18.4815 14.7553 18.4815 14.9469C18.4815 15.1385 18.4668 15.3228 18.4373 15.4997L19.4544 16.3841L18.57 17.8877L17.2875 17.4897C17.1254 17.6076 16.9669 17.7071 16.8122 17.7882C16.6574 17.8693 16.4915 17.9466 16.3147 18.0203L16.0493 19.347H14.2804ZM1.89828 18.4626V15.9861C1.89828 15.4997 2.02358 15.0427 2.27417 14.6153C2.52476 14.1878 2.87117 13.8635 3.31339 13.6424C4.06516 13.2591 4.91275 12.9348 5.85615 12.6695C6.79956 12.4042 7.83877 12.2715 8.97381 12.2715H9.28336C9.3718 12.2715 9.46025 12.2862 9.54869 12.3157C9.12121 13.377 8.94432 14.431 9.01803 15.4776C9.09173 16.5242 9.44551 17.5192 10.0794 18.4626H1.89828ZM15.1649 16.6937C15.6513 16.6937 16.0678 16.5205 16.4142 16.1741C16.7606 15.8277 16.9338 15.4112 16.9338 14.9248C16.9338 14.4384 16.7606 14.0219 16.4142 13.6755C16.0678 13.3291 15.6513 13.1559 15.1649 13.1559C14.6784 13.1559 14.262 13.3291 13.9156 13.6755C13.5692 14.0219 13.396 14.4384 13.396 14.9248C13.396 15.4112 13.5692 15.8277 13.9156 16.1741C14.262 16.5205 14.6784 16.6937 15.1649 16.6937ZM8.97381 11.387C8.00092 11.387 7.16807 11.0406 6.47526 10.3478C5.78245 9.65502 5.43605 8.82217 5.43605 7.84928C5.43605 6.8764 5.78245 6.04355 6.47526 5.35074C7.16807 4.65793 8.00092 4.31152 8.97381 4.31152C9.94669 4.31152 10.7795 4.65793 11.4723 5.35074C12.1652 6.04355 12.5116 6.8764 12.5116 7.84928C12.5116 8.82217 12.1652 9.65502 11.4723 10.3478C10.7795 11.0406 9.94669 11.387 8.97381 11.387Z" fill="#003C72"/>
</g>
</svg>
