<svg width="22" height="22" viewBox="0 0 22 22" fill="none" xmlns="http://www.w3.org/2000/svg">
<mask id="mask0_150_12166" style="mask-type:alpha" maskUnits="userSpaceOnUse" x="0" y="0" width="22" height="22">
<rect x="0.129395" y="0.773438" width="21.2266" height="21.2266" fill="#D9D9D9"/>
</mask>
<g mask="url(#mask0_150_12166)">
<path d="M3.66714 17.5775V15.8086H5.43603V9.61751C5.43603 8.39404 5.80454 7.30691 6.54158 6.35614C7.27861 5.40537 8.23675 4.78257 9.41601 4.48776V3.86865C9.41601 3.50014 9.54499 3.1869 9.80295 2.92893C10.0609 2.67097 10.3741 2.54199 10.7427 2.54199C11.1112 2.54199 11.4244 2.67097 11.6824 2.92893C11.9403 3.1869 12.0693 3.50014 12.0693 3.86865V4.48776C13.2486 4.78257 14.2067 5.40537 14.9438 6.35614C15.6808 7.30691 16.0493 8.39404 16.0493 9.61751V15.8086H17.8182V17.5775H3.66714ZM10.7427 20.2308C10.2562 20.2308 9.8398 20.0576 9.49339 19.7112C9.14699 19.3648 8.97379 18.9484 8.97379 18.4619H12.5115C12.5115 18.9484 12.3383 19.3648 11.9919 19.7112C11.6455 20.0576 11.2291 20.2308 10.7427 20.2308Z" fill="#003C72"/>
</g>
</svg>
